<?xml version="1.0" standalone="no"?><!DOCTYPE svg PUBLIC "-//W3C//DTD SVG 1.1//EN" "http://www.w3.org/Graphics/SVG/1.1/DTD/svg11.dtd"><svg t="1613052602987" class="icon" viewBox="0 0 1024 1024" version="1.1" xmlns="http://www.w3.org/2000/svg" p-id="2545" xmlns:xlink="http://www.w3.org/1999/xlink" width="200" height="200"><defs><style type="text/css"></style></defs><path d="M447.27064 700.509091h129.396363V1000.727273a23.272727 23.272727 0 0 1-23.272727 23.272727h-82.618182a23.272727 23.272727 0 0 1-23.272727-23.272727V700.509091h-0.232727z" fill="#FCCA8D" p-id="2546"></path><path d="M414.921549 17.803636V700.509091H609.481549V210.501818a139.636364 139.636364 0 0 1 0-119.04V17.803636a273.105455 273.105455 0 0 0-193.978182 0zM738.296094 290.909091v409.6h15.36a33.163636 33.163636 0 0 0 33.163637-33.047273V281.250909a139.636364 139.636364 0 0 1-48.523637 9.658182zM237.117912 667.461818a33.047273 33.047273 0 0 0 33.163637 33.047273h15.36V119.505455A272.058182 272.058182 0 0 0 237.117912 274.850909z" fill="#50BC5F" p-id="2547"></path><path d="M285.641549 119.505455V700.509091h129.28V17.803636a277.061818 277.061818 0 0 0-129.28 101.701819zM651.954276 38.632727a284.043636 284.043636 0 0 0-36.189091-18.152727L609.481549 17.803636v73.658182a141.032727 141.032727 0 0 1 42.472727-52.829091zM735.619731 290.909091A139.636364 139.636364 0 0 1 609.481549 210.501818V700.509091h128.814545V290.909091z" fill="#82D892" p-id="2548"></path></svg>